<?xml version="1.0" encoding="UTF-8" standalone="no"?>
<!-- Created with Inkscape (http://www.inkscape.org/) -->

<svg
   width="7.3218646mm"
   height="10.116316mm"
   viewBox="0 0 7.3218647 10.116316"
   version="1.1"
   id="svg5"
   sodipodi:docname="ico_1.svg"
   inkscape:version="1.1.2 (b8e25be833, 2022-02-05)"
   xmlns:inkscape="http://www.inkscape.org/namespaces/inkscape"
   xmlns:sodipodi="http://sodipodi.sourceforge.net/DTD/sodipodi-0.dtd"
   xmlns="http://www.w3.org/2000/svg"
   xmlns:svg="http://www.w3.org/2000/svg">
  <sodipodi:namedview
     id="namedview24"
     pagecolor="#ffffff"
     bordercolor="#666666"
     borderopacity="1.0"
     inkscape:pageshadow="2"
     inkscape:pageopacity="0.0"
     inkscape:pagecheckerboard="0"
     inkscape:document-units="mm"
     showgrid="false"
     inkscape:zoom="5.1772522"
     inkscape:cx="-37.85792"
     inkscape:cy="13.327533"
     inkscape:window-width="1920"
     inkscape:window-height="1017"
     inkscape:window-x="-8"
     inkscape:window-y="-8"
     inkscape:window-maximized="1"
     inkscape:current-layer="layer1"
     showguides="true"
     inkscape:guide-bbox="true"
     fit-margin-top="0"
     fit-margin-left="0"
     fit-margin-right="0"
     fit-margin-bottom="0">
    <sodipodi:guide
       position="55.467661,-7.6948915"
       orientation="0,-1"
       id="guide2602" />
  </sodipodi:namedview>
  <defs
     id="defs2">
    <linearGradient
       id="linearGradient13801">
      <stop
         style="stop-color:#000000;stop-opacity:1;"
         offset="0"
         id="stop13799" />
    </linearGradient>
    <linearGradient
       id="linearGradient13171">
      <stop
         style="stop-color:#008000;stop-opacity:1;"
         offset="0"
         id="stop13169" />
    </linearGradient>
    <clipPath
       clipPathUnits="userSpaceOnUse"
       id="clipPath3964">
      <path
         id="path3966"
         style="fill:#ff0000;fill-opacity:1;fill-rule:nonzero;stroke:none;stroke-width:0.264583"
         d="m 86.810338,-12.90838 2.505575,8.83178 6.39229,-1.8134924 -2.505576,-8.8317796 z m 3.373314,-0.867304 5.09e-4,-1.44e-4 c 0.0185,-0.0074 0.04363,0.001 0.05913,0.03425 l 1.44e-4,5.09e-4 c 3.56e-4,2.84e-4 9.44e-4,4.19e-4 0.0013,7.03e-4 -4.56e-4,-0.0019 -0.0011,-0.0036 -0.0016,-0.0055 -0.0014,-0.0087 -0.0015,-0.0081 -0.0035,-0.0162 -3.59e-4,-0.0013 -0.001,-0.0028 -0.0011,-0.004 l -1.45e-4,-5.09e-4 c 0.02304,-0.01271 0.0276,-0.02068 0.03078,-0.02216 l 5.09e-4,-1.45e-4 5.09e-4,-1.44e-4 c 0.0019,-9.09e-4 0.0032,2.2e-4 0.0078,0.0048 0.0019,8.14e-4 8.43e-4,6.3e-5 0.0025,9.24e-4 0.02695,0.01095 0.02375,0.03534 0.0068,0.04104 0.0025,0.0107 0.0054,0.02095 0.0099,0.03103 0.0022,0.0048 0.0051,0.0094 0.0077,0.01392 -0.0051,-0.02763 0.003,-0.04947 0.05355,-0.05172 0.02132,-9.55e-4 0.02596,0.02249 0.03257,0.0391 0.0017,9.88e-4 0.0037,0.0025 0.0054,0.0038 0.01914,-0.0097 0.04877,-0.0024 0.07163,-0.0031 0.0019,-1.24e-4 0.0016,0.0026 0.0014,0.005 0.0035,2.43e-4 0.0072,2.35e-4 0.01142,5.19e-4 0.0056,0.0058 0.01169,0.01126 0.01721,0.01714 -0.0029,-0.019 -0.0054,-0.04044 -0.0064,-0.0546 -6.4e-4,-0.01001 1.19e-4,-0.02003 4.3e-5,-0.03009 2e-5,-1.44e-4 2.56e-4,-10e-4 2.27e-4,-0.0011 l -1.44e-4,-5.09e-4 c -0.0012,-0.0037 -0.0021,-0.0066 7.12e-4,-0.0072 0.0014,-0.01032 0.0042,-0.02601 0.0093,-0.02788 4.99e-4,-1.82e-4 0.0011,-1.58e-4 0.0017,7.6e-5 0.0263,0.0044 0.04727,0.02618 0.07291,0.03357 0.02101,0.0061 -0.01996,-0.03149 -0.0069,-0.02436 0.0098,0.0054 0.01702,0.01451 0.02551,0.02177 0.0096,0.0083 0.01988,0.01597 0.02862,0.02518 0.01154,0.01209 0.02652,0.0289 0.04058,0.0465 0.04041,-0.01039 0.05443,-0.03046 0.07271,-0.01257 0.01554,-0.0033 0.02898,-0.0057 0.03962,-0.008 0.0024,-0.01326 0.0098,-0.02308 0.02021,-0.02722 0.01291,-0.0051 0.02951,-0.0018 0.04491,0.01251 0.0069,-0.0016 0.01392,-0.0029 0.02095,-0.0038 0.0021,-2.72e-4 0.0044,-0.0011 0.0066,-0.0013 0.0029,-0.0012 0.0059,-0.0011 0.0088,-0.0031 0.05242,-0.016 0.03717,-0.01614 0.110322,-0.0087 0.01673,0.0016 0.03463,0.0017 0.04946,0.0096 0.008,0.0042 0.01567,0.0089 0.02325,0.01381 5.89e-4,1.36e-4 7.12e-4,5.68e-4 0.0013,7.04e-4 0.02223,0.0072 0.03083,0.01018 0.04999,0.02664 3.14e-4,-8.32e-4 0.0021,-0.0023 0.0024,-0.0028 0.0074,-0.01516 0.02038,-0.02642 0.0306,-0.03984 0.0131,-0.0049 0.02133,-0.0084 0.02763,-0.01053 0.01892,-0.0064 0.02058,-5.42e-4 0.0826,0.0147 0.04198,0.01033 0.07006,0.02225 0.106389,0.04556 0.01925,0.0031 0.03904,0.0059 0.05833,0.0087 0.0244,0.0036 0.05147,0.0085 0.07643,0.01001 0.02059,-0.0014 0.04098,-0.003 0.06141,-0.0051 0.0031,-0.0014 0.0055,-0.0029 0.0085,-0.004 0.02103,-0.008 0.04262,-0.01355 0.06406,-0.02032 0.05174,-0.01245 0.04854,-0.01311 0.09877,-0.01728 0.0166,-0.0047 0.03596,-0.0098 0.04318,-0.01063 0.01539,-0.0017 0.03025,-0.0011 0.04571,-0.0017 0.02251,9.21e-4 0.04495,0.0037 0.06592,0.01084 0.004,-0.0052 0.0081,-0.01036 0.01232,-0.01531 0.01644,-0.01923 0.03838,-0.03052 0.06133,-0.03942 0.01603,-4.1e-4 0.03228,-0.003 0.04813,-7.63e-4 0.02412,0.0035 0.0465,0.02239 0.05947,0.0449 4.9e-4,-2.09e-4 0.0014,-8.91e-4 0.0019,-0.0011 0.0034,-0.0072 0.0071,-0.01237 0.01124,-0.0134 0.0049,-0.0012 0.0107,0.0033 0.01721,0.01714 0.0049,0.0104 0.0087,0.02104 0.01084,0.03238 2.1e-4,0.0012 4.3e-4,0.0024 4.78e-4,0.0036 0.01394,0.0058 0.02728,0.02043 0.03455,0.04606 l 0.0051,0.0179 c 0.0034,0.01191 0.0055,0.01946 0.0059,0.02842 0.0025,0.0051 0.0048,0.01104 0.0066,0.01746 l 0.01114,0.03927 0.0032,0.01143 c 0.002,0.0022 0.0041,0.0041 0.0061,0.0063 0.0014,0.0041 0.0034,0.008 0.0045,0.01214 0.0023,0.0078 0.0023,0.0088 0.002,0.0091 2e-6,6.6e-4 -1.4e-5,0.0029 5.33e-4,0.0058 0.0024,0.01029 0.0062,0.02004 0.0091,0.03018 0.0045,0.01497 0.0086,0.03018 0.01283,0.04524 5.87e-4,0.0021 0.0019,0.0037 0.0017,0.006 -5.93e-4,0.01061 -0.0026,0.02119 -0.0039,0.03172 -0.01459,0.0078 -0.0293,0.01542 -0.04391,0.0232 -0.0029,0.0015 -0.0054,0.0025 -0.0077,0.0032 0.0012,0.01381 -0.0033,0.02163 -0.02564,0.01 -0.01608,-0.0084 -0.0304,-0.02009 -0.03521,-0.03889 -0.0025,-0.009 -0.0051,-0.01783 -0.0076,-0.02685 -1.21e-4,-4.06e-4 -3.27e-4,-0.0012 -8.46e-4,-0.003 -0.0021,-0.0073 -0.0041,-0.01456 -0.0062,-0.02187 -0.0078,0.0011 -0.01756,0.0021 -0.03195,0.0048 -0.0024,3.95e-4 -0.01586,-0.01258 -0.01594,-0.01267 -3.42e-4,-3.43e-4 -0.0011,-0.0011 -7.91e-4,-8.48e-4 -0.0023,-0.0015 -0.0044,-0.0028 -0.0065,-0.0041 -0.02905,0.01171 -0.05879,0.02238 -0.08907,0.03064 -0.0037,0.0029 -0.0066,0.0063 -0.01024,0.0094 -0.0069,0.0053 -0.01371,0.01022 -0.02097,0.01508 -0.0044,0.0029 -0.009,0.0061 -0.01379,0.0082 -0.0073,0.0031 -0.0152,0.0046 -0.02271,0.007 -0.02122,0.0011 -0.01717,0.0026 -0.03953,-0.0049 -0.004,-0.0013 -0.0085,-0.0027 -0.0117,-0.0053 -3.03e-4,-2.45e-4 -3.81e-4,-6.35e-4 -7.91e-4,-8.49e-4 l -5.09e-4,1.45e-4 c -0.002,-1.82e-4 -0.0035,-0.0011 -0.0046,-0.003 -1.72e-4,-3.09e-4 -1.11e-4,-6.84e-4 -2.81e-4,-9.93e-4 -3.85e-4,-3.86e-4 -8.2e-4,-9.5e-4 -0.0014,-0.0012 -0.0175,0.0053 -0.03476,0.01135 -0.05199,0.01744 9.72e-4,0.01215 -0.008,0.02049 -0.04021,0.01731 -0.01,-9.99e-4 -0.01731,-0.007 -0.02319,-0.01544 -0.0088,0.0025 -0.01766,0.0046 -0.02649,0.007 0.0044,0.01354 -0.0073,0.0216 -0.03373,0.04395 -0.0096,0.0051 -0.01855,0.01091 -0.02835,0.01556 -0.03461,0.01637 -5.5e-5,-0.0021 -0.02507,0.0082 -0.0096,0.004 -0.01869,0.0097 -0.02856,0.01294 -0.02449,0.008 -0.03523,0.0077 -0.05915,0.0093 -0.0081,4.61e-4 -0.0163,5.96e-4 -0.02441,10e-4 -0.0274,0.0079 -0.05454,0.01588 -0.08189,0.02378 -0.04416,0.01283 -0.08872,0.02432 -0.133018,0.03666 -0.01506,0.01177 -0.02986,0.02315 -0.03963,0.01179 -0.01212,-0.01412 -0.01964,-0.03094 -0.02511,-0.04874 -0.04437,0.0052 -0.08863,0.01046 -0.132911,0.01622 -0.06323,0.01802 -0.126534,0.03628 -0.189764,0.05439 0.0063,-0.0016 0.0079,-7.74e-4 -0.0099,0.0087 -0.03275,0.0176 -0.03008,0.01505 -0.06272,0.02317 -0.01047,0.0036 -0.02156,0.0015 -0.03223,0.0038 -0.0082,0.0017 -0.01613,0.0055 -0.02408,0.0079 -0.04421,0.01351 -0.01407,0.0042 -0.05043,0.01538 -0.02402,0.0071 -0.04842,0.01396 -0.07258,0.02059 -0.0036,10e-4 -0.0074,0.0016 -0.01109,0.0026 -0.0013,3.47e-4 -0.0033,0.0025 -0.004,0.0011 -0.02473,-0.04847 -0.04671,-0.09805 -0.07021,-0.147136 0.0061,-0.0064 0.01285,-0.01151 0.0202,-0.01594 -5.74e-4,-0.003 -0.0011,-0.0057 -0.0014,-0.0087 -0.0616,0.0295 -0.123292,0.05844 -0.185356,0.08696 -0.0023,0.0027 -0.0046,0.0053 -0.0069,0.0079 -0.04229,0.04671 -0.08663,0.05873 -0.118704,0.04925 0,0 -5.09e-4,1.44e-4 -5.09e-4,1.44e-4 -7.34e-4,3.24e-4 -0.0018,6.03e-4 -0.0025,7.22e-4 0,0 -5.09e-4,1.45e-4 -5.09e-4,1.45e-4 -0.0057,0.0039 -0.0098,0.0064 -0.0101,0.0061 -0.11965,-0.108819 -0.147106,-0.09337 -0.09359,-0.132984 -4.42e-4,-5.89e-4 -8.84e-4,-0.0012 -0.0016,-0.0017 -0.0023,-0.0025 0.0058,-0.0037 0.0086,-0.0057 0.0071,-0.005 0.03985,-0.02823 0.05103,-0.03597 -0.09676,-0.08919 -0.09652,-0.07412 -0.04965,-0.131484 0.0098,-0.0071 0.01917,-0.01512 0.02929,-0.02174 0.0051,-0.0032 0.01073,-0.0049 0.01605,-0.0078 0.01191,-0.0065 0.02356,-0.01282 0.03525,-0.01967 4.71e-4,-2.77e-4 9.17e-4,-6.45e-4 0.0014,-9.43e-4 -1.06e-4,-3.54e-4 -1.8e-4,-6.36e-4 -2.81e-4,-9.92e-4 l -0.0087,-0.03082 c -7.6e-4,-0.0027 -0.002,-0.0051 -0.0023,-0.008 -6.86e-4,-0.0063 -0.0011,-0.01258 -0.0016,-0.01889 2.21e-4,-0.0031 4.41e-4,-0.0062 5.8e-4,-0.0093 6.3e-5,5.32e-4 4.06e-4,0.0012 5.64e-4,0.002 -9.95e-4,-0.01601 -0.0019,-0.01064 0.0031,-0.03257 0.0021,-0.0039 0.0042,-0.008 0.0063,-0.01199 0,0 3.65e-4,-6.54e-4 3.65e-4,-6.54e-4 l -0.0037,-0.01292 -0.0099,-0.0348 -0.0014,-0.005 -0.0051,-0.0179 c -2.48e-4,-1.95e-4 -3.28e-4,-5.95e-4 -7.91e-4,-8.48e-4 l 5.1e-4,-1.45e-4 6.53e-4,3.65e-4 c 0.002,0.0011 0.0055,0.0029 0.0069,0.0034 -0.0026,-0.0023 -0.0055,-0.0042 -0.0082,-0.0063 l -1.44e-4,-5.09e-4 -1.45e-4,-5.09e-4 c -0.0055,-0.0042 -0.01151,-0.0082 -0.01693,-0.01239 -0.0019,-0.0027 -0.0032,-0.0055 -0.0051,-0.0082 -0.02436,-0.0372 -0.01205,-0.06882 0.01008,-0.07806 z m 0.681352,0.580208 c -0.005,0.0014 -0.01,0.0028 -0.01492,0.0042 0,0 -5.09e-4,1.44e-4 -5.09e-4,1.44e-4 -0.0017,7.86e-4 -0.0027,0.0012 -0.0033,0.0015 0.0013,-1.74e-4 0.01244,-0.0042 0.01874,-0.0059 z m -0.481211,-0.524185 c -8.3e-5,-3.61e-4 2.8e-5,10e-4 -2.27e-4,0.0011 5.38e-4,0.0015 2.89e-4,0.0012 5.63e-4,0.002 -2.25e-4,-10e-4 -5.4e-5,-0.0021 -3.36e-4,-0.0031 z m 0.199768,-0.01155 c 0.0029,0.0026 0.0058,0.0052 0.0086,0.0078 -0.0012,-0.0014 -0.0026,-0.0034 -0.0042,-0.0052 -9.94e-4,-5.98e-4 -0.0032,-0.0015 -0.0045,-0.0025 z m 0.142233,0.0091 c -8.94e-4,-2.42e-4 -0.0016,1.27e-4 -7.37e-4,0.0013 0.0013,0.0018 0.0029,0.0035 0.0042,0.0052 0.0015,-4.7e-4 0.0031,-6.19e-4 0.0045,-0.0013 l 5.09e-4,-1.44e-4 c -0.0034,-0.0023 -0.0068,-0.0047 -0.0084,-0.0051 z m 8.75e-4,0.330641 c -0.0033,0.0034 -0.0066,0.0066 -0.0101,0.0098 -0.0038,0.0028 -0.0077,0.0058 -0.01152,0.0086 0.01307,-0.0039 0.02829,-0.0086 0.04198,-0.01298 -0.0017,-0.0013 -0.0032,-0.0027 -0.0049,-0.004 -0.0046,-4.27e-4 -0.0092,-9.47e-4 -0.01383,-0.0014 -5.65e-4,-5.2e-5 -0.0011,-1.6e-5 -0.0017,-7.5e-5 z m 1.255998,-0.353632 c -0.01095,0.0025 -0.026,0.01913 -0.0451,0.05308 5.43e-4,9.45e-4 0.0016,0.0017 0.0019,0.0027 0.0034,0.0021 0.007,0.0042 0.01034,0.0062 0.0017,0.0022 0.0037,0.0044 0.0056,0.0065 8.01e-4,-8.5e-5 0.0029,8.9e-5 0.0038,4e-6 0.01379,-0.01149 0.01109,-0.0096 0.0038,3e-6 0.0052,-2.92e-4 0.01114,-4.66e-4 0.02143,-1.72e-4 -0.01154,-0.02641 -0.01268,-0.02648 0.02364,0.0019 3.05e-4,1.04e-4 8.51e-4,8.9e-5 0.0012,2.2e-4 0.0012,2.46e-4 0.0018,5.34e-4 0.003,7.8e-4 -0.0025,-0.04109 -0.01029,-0.07553 -0.02932,-0.07118 z m -1.364949,0.61714 c -0.0026,7.3e-4 -0.0033,0.0015 -0.0048,0.0019 0.0039,-0.0011 0.0088,-0.0027 0.01327,-0.0043 -0.0027,7.46e-4 -0.0064,0.0018 -0.0085,0.0024 z m 1.543539,-0.425011 c 0.0026,0.0034 0.0058,0.0067 0.0087,0.0099 -6.92e-4,-0.0015 -0.0014,-0.0029 -0.0023,-0.0042 -0.001,-0.0017 -0.0048,-0.0051 -0.0059,-0.0058 z m 0.01991,0.0948 c -0.0028,0.0011 -0.0064,0.0031 -0.01072,0.0057 -0.0021,0.0013 -0.0042,0.0027 -0.0064,0.004 4.16e-4,0.0015 7.98e-4,0.003 0.0013,0.0045 0.0021,0.0072 0.0041,0.01461 0.0062,0.02187 0.01503,-0.02304 0.02657,-0.04303 0.0097,-0.03604 z m -0.03276,0.01896 c -0.0028,0.0016 -0.0054,0.0034 -0.0083,0.005 -0.0016,0.0092 0.0047,0.02786 0.0097,0.04559 0.0058,-0.0099 0.01359,-0.02171 0.02079,-0.03276 -0.0013,-0.0027 -0.0026,-0.0053 -0.0039,-0.008 -8.19e-4,-9.5e-4 -0.0015,-0.0015 -0.0029,-0.0024 -0.0069,-0.0045 -0.0118,-0.0066 -0.01552,-0.0074 z" />
    </clipPath>
    <clipPath
       clipPathUnits="userSpaceOnUse"
       id="clipPath4111">
      <path
         id="path4113"
         style="fill:#ff0000;fill-opacity:1;fill-rule:nonzero;stroke:none;stroke-width:0.264583"
         d="m 90.474064,11.662337 v 0.05323 c 0.0074,-0.0057 0.01691,-0.01083 0.02894,-0.01447 0.004,-0.0012 0.0079,-0.002 0.01188,-0.0031 -1.4e-5,-0.0026 -2.65e-4,-0.0051 -5.29e-4,-0.0078 0.006,-0.0037 0.02564,-0.01847 0.03721,-0.01912 0.01826,-0.001 0.03592,-0.0013 0.05323,-5.29e-4 1.6e-5,-0.0028 3e-6,-0.0055 0,-0.0083 z m 0.62787,0 c 2.65e-4,1.57e-4 7.94e-4,4.23e-4 0.0011,5.29e-4 -6.9e-5,0.0012 5.3e-5,0.0024 0,0.0036 0.0245,0.0034 0.01529,0.01639 -5.29e-4,0.03101 3.4e-5,0.01598 -2.38e-4,0.0317 -0.0041,0.04703 -0.0016,0.0058 -0.0067,0.0092 -0.01241,0.0124 0.04282,0.0088 0.08578,0.01726 0.128674,0.02584 V 11.66234 Z m -0.293008,0.348299 c 2.33e-4,0.0023 5.3e-4,0.0046 5.3e-4,0.0067 0.0034,-10e-4 0.0064,-0.0031 0.0088,-0.0057 -0.0033,-4.24e-4 -0.0065,-6.35e-4 -0.0093,-10e-4 z m -0.280085,0.0072 c -0.0053,1.86e-4 -0.01072,3.17e-4 -0.01601,5.29e-4 -0.01299,3.17e-4 -0.02588,7.41e-4 -0.03876,0.001 v 1.073319 h 0.740523 v -0.93741 c -0.04006,-0.01111 -0.07956,-0.0254 -0.116273,-0.04496 -0.0026,5.82e-4 -0.0053,7.15e-4 -0.0067,-0.001 -0.0016,-0.002 -0.0034,-0.0042 -0.0052,-0.0062 -0.005,-0.0029 -0.01011,-0.0057 -0.01498,-0.0088 -0.0087,-0.0055 -0.01712,-0.01137 -0.02532,-0.01757 -0.01815,-0.01377 -0.0057,-0.009 -0.02016,-0.01343 -0.02196,-0.0054 -0.043,-0.01587 -0.06511,-0.02067 -0.04344,-0.0094 -0.08816,-0.01275 -0.132292,-0.01705 -0.0085,-6.88e-4 -0.01693,-5.56e-4 -0.02532,-0.0021 -0.0087,-0.0015 -0.01656,-0.0032 -0.02376,-0.0057 -0.0066,-3e-6 -0.01307,10e-7 -0.01963,0 -0.07684,-1.2e-5 -0.08018,-2.4e-5 -0.158131,0 -0.02437,1.3e-5 -0.0485,-1.3e-5 -0.07286,0 z" />
    </clipPath>
    <clipPath
       clipPathUnits="userSpaceOnUse"
       id="clipPath4121">
      <path
         id="path4123"
         style="fill:#ff0000;fill-opacity:1;fill-rule:nonzero;stroke:none;stroke-width:0.264583"
         d="m 92.061564,11.922786 c 0.004,0.0097 0.0076,0.0193 0.0093,0.02894 0.01048,0.0065 0.01942,0.01473 0.02429,0.02584 0.0066,0.01517 -0.02201,0.02674 -0.03773,0.03204 -0.0048,0.0016 -0.01,0.0029 -0.01497,0.0036 -0.0011,0.0012 -0.0021,0.0024 -0.0031,0.0036 -0.0011,0.0033 -0.0021,0.0069 -0.0031,0.0093 0.0079,0 0.01582,1.4e-5 0.02376,0 0.019,-4.3e-5 0.03837,-6e-6 0.05736,0 0.01423,-2.91e-4 0.02593,3.5e-5 0.03979,0.0072 0.0057,0.003 0.0096,0.0086 0.01447,0.01292 -0.0083,0.02441 -0.01286,0.05 -0.02479,0.07286 -0.0041,0.0078 -0.014,0.01162 -0.0217,0.01602 -0.01593,0.0092 -0.03245,0.01697 -0.04909,0.02481 0.0024,8.2e-4 0.0048,0.0013 0.0072,0.0021 1.27e-4,-9.79e-4 2.65e-4,-0.0021 5.29e-4,-0.0031 2.07e-4,-0.0013 0.0026,0.0021 0.0031,0.0036 0,0 0,5.29e-4 0,5.29e-4 -0.0013,-3.44e-4 -0.0024,-6.61e-4 -0.0036,-10e-4 -0.0027,0.02132 0.0019,0.04439 -0.0067,0.06408 -0.0035,0.0082 -0.01693,0.0055 -0.02532,0.0083 -0.0067,-8.6e-5 -0.01347,9.3e-5 -0.02016,-5.29e-4 -0.0053,-4.76e-4 -0.01024,-5.03e-4 -0.01498,-10e-4 0,0 -5.3e-4,0 -5.3e-4,0 -0.0038,0.0019 -0.0081,0.0043 -0.01344,0.0072 -0.05423,0.0103 -0.10795,0.0076 -0.16278,0.0052 -0.0267,0.02232 -0.07814,0.01221 -0.104389,0.01395 -0.0517,0.0034 -0.09158,-0.0043 -0.14211,-0.01137 -0.02792,-0.0076 -0.05572,-0.01499 -0.08371,-0.02222 v 1.063501 h 0.688845 v -1.366325 z m -0.02532,0.103353 c -0.0019,0 -0.0038,10e-7 -0.0057,0 -0.0011,0.0012 -0.0021,0.0025 -0.0031,0.0036 0.0011,0.0093 0.0034,0.01042 0.0088,-0.0036 z m -0.0057,0 c 0.0029,-0.0031 0.006,-0.0061 0.0088,-0.0093 2.65e-4,-9.26e-4 7.94e-4,-0.0021 0.0011,-0.0031 -0.0047,6.09e-4 -0.0092,3.71e-4 -0.01394,5.3e-4 6.9e-5,0.0045 2.65e-4,0.0085 5.29e-4,0.01188 0.0013,0 0.0024,-1e-6 0.0036,0 z m 0.01085,-0.04341 c -0.0042,2.11e-4 -0.0084,6.88e-4 -0.01188,0.0016 -0.0011,2.64e-4 -0.0021,2.64e-4 -0.0031,5.29e-4 -1.1e-5,0.0011 8e-6,0.0021 0,0.0031 0.008,-0.0018 0.0159,-0.0037 0.02273,-0.0047 0,0 0,-5.29e-4 0,-5.29e-4 -0.0026,1.49e-4 -0.0051,-1.31e-4 -0.0078,0 z" />
    </clipPath>
  </defs>
  <g
     id="layer1"
     transform="translate(-5.2450495,-3.9771911)">
    <path
       style="fill:#ecec75;fill-opacity:1;stroke:none;stroke-width:0.0716297;stroke-miterlimit:4;stroke-dasharray:none"
       id="path1951"
       d="m 8.071793,4.4074985 c 0,0 -0.052157,0.1265636 -0.067338,0.1933513 -0.023933,0.089371 -0.00172,0.1499164 0.037808,0.2294797 0.032422,0.067251 0.088236,0.1170839 0.1345436,0.1740569 0.050388,0.061603 0.056514,0.1040175 0.046969,0.1814973 -0.021848,0.1077864 -0.075945,0.2027723 -0.1275483,0.2983205 -0.017333,0.038312 -0.04788,0.077163 -0.052448,0.1205465 -0.00488,0.046682 0.014864,0.087828 0.035168,0.1277714 l 0.550714,-0.3135194 v 0 c -0.00436,-0.00882 -0.00977,-0.01712 -0.012805,-0.026468 -0.0186,-0.058345 0.030204,-0.1157268 0.051141,-0.1660925 0.05089,-0.1033786 0.1024268,-0.208038 0.120631,-0.3230853 0.0029,-0.09064 -0.00726,-0.1528975 -0.06648,-0.224203 C 8.6801678,4.6240527 8.623773,4.5808127 8.5923017,4.5177404 8.5588503,4.4482621 8.5539527,4.4029918 8.5763681,4.3283081 8.5973049,4.2628033 8.621872,4.1988747 8.6561419,4.1389875 l -0.4858613,0.00388 z" />
    <path
       style="fill:#ecec75;fill-opacity:1;stroke:none;stroke-width:0.0649999;stroke-miterlimit:4;stroke-dasharray:none"
       id="path1986"
       d="m 90.501157,11.902451 c 0,0 -0.03116,0.09727 -0.02687,0.148863 0.0027,0.03281 0.01328,0.06522 0.02201,0.09667 0.02141,0.05844 0.04879,0.116168 0.08605,0.166404 0.0096,0.01296 0.03642,0.04283 0.04757,0.05547 0.05066,0.0524 0.06364,0.08854 0.07348,0.159299 0.01013,0.08835 -0.0069,0.17679 -0.0191,0.264093 -0.01585,0.0991 -0.01632,0.199391 -0.01992,0.299386 l 0.506492,-0.25636 v 0 c 0.0016,-0.09826 0.0092,-0.196366 0.02297,-0.293697 0.01326,-0.09298 0.02866,-0.187108 0.0163,-0.281111 -0.01323,-0.08427 -0.02746,-0.127093 -0.08872,-0.188693 -0.01492,-0.01684 -0.0312,-0.03248 -0.04594,-0.04949 -0.03655,-0.04222 -0.06184,-0.09297 -0.07859,-0.145951 -0.01966,-0.09044 -0.01344,-0.135096 0.0349,-0.214954 l -0.480378,0.02229 z"
       clip-path="url(#clipPath4111)"
       transform="matrix(1.1019961,0,0,1.1019961,-90.67027,-8.4477578)" />
    <path
       style="fill:#ecec75;fill-opacity:1;stroke:none;stroke-width:0.0649999;stroke-miterlimit:4;stroke-dasharray:none"
       id="path1988"
       d="m 91.508915,12.213209 c 0.0059,0.03892 0.0011,0.07863 0.0043,0.117662 0.003,0.0363 0.0072,0.04536 0.01669,0.08087 0.02814,0.08834 0.0879,0.160195 0.131368,0.240627 0.0041,0.01238 0.0096,0.02436 0.0122,0.03713 0.0077,0.03819 0.0027,0.107672 -0.0077,0.145293 -0.0029,0.01044 -0.0076,0.02028 -0.01143,0.03041 -0.01921,0.04244 -0.0325,0.08762 -0.03183,0.134705 2.04e-4,0.0144 0.0076,0.0718 0.0094,0.08688 0.01056,0.07137 0.05737,0.18272 0.08091,0.190273 l 0.443923,-0.253341 0.0059,-0.01241 c 0,0 -0.01546,-0.125191 -0.02398,-0.189597 -0.003,-0.03245 -0.0056,-0.04305 -0.0019,-0.07545 0.005,-0.04443 0.02582,-0.0846 0.03612,-0.127724 0.01683,-0.0839 0.01767,-0.170411 -0.01659,-0.250438 -0.0418,-0.07558 -0.101216,-0.142183 -0.122433,-0.22806 -0.01262,-0.06332 -0.0096,-0.127852 -0.0045,-0.191996 l -0.520409,-0.02523 z"
       clip-path="url(#clipPath4121)"
       transform="matrix(1.1019961,0,0,1.1019961,-90.67027,-8.4477578)" />
    <path
       style="fill:#ecec75;fill-opacity:1;stroke:none;stroke-width:0.0716297;stroke-miterlimit:4;stroke-dasharray:none"
       id="path1990"
       d="m 11.257097,5.347425 c -0.04094,0.045047 -0.09802,0.1354147 -0.106492,0.2481456 -0.02747,0.06767 -0.05797,0.137008 -0.0623,0.2110628 -7.62e-4,0.014876 1.9e-4,0.029809 2.85e-4,0.044705 0.0103,0.1115302 0.07754,0.2011157 0.141267,0.2886533 0.0497,0.077074 0.107417,0.1484567 0.159581,0.2237567 0.02194,0.035339 0.0036,0.1174232 0.02935,0.1031793 l 0.564934,-0.2915102 v 0 c -0.01175,-0.036295 -0.01855,-0.094772 -0.0485,-0.135062 -0.05668,-0.072136 -0.116024,-0.1421368 -0.168771,-0.2173049 -0.094,-0.03205 -0.113292,-0.1581228 -0.113846,-0.2555568 0.0092,-0.081218 0.03346,-0.1586053 0.06684,-0.2332543 0.03819,-0.086287 0.07832,-0.1716493 0.121964,-0.2553321 l -0.328936,0.010033 z" />
    <rect
       style="fill:none;stroke:#000000;stroke-width:0.165"
       id="rect1057"
       width="4.5489683"
       height="8.3397751"
       x="88.984825"
       y="-13.569111"
       ry="0.34623194"
       transform="matrix(1.0601579,0.30076677,-0.30076677,1.0601579,-90.67027,-8.4477578)"
       rx="0.59801406"
       clip-path="url(#clipPath3964)" />
    <path
       style="fill:none;stroke:#000000;stroke-width:0.0721933;stroke-linecap:butt;stroke-linejoin:miter;stroke-miterlimit:4;stroke-dasharray:none;stroke-opacity:1"
       d="m 7.0557709,6.4692368 1.5382377,-0.4699642 0.6011499,0.3655282 1.5205565,0.1044334 0.760277,0.8528975 0.63651,-0.2959038"
       id="path1232" />
    <path
       style="fill:none;stroke:#000000;stroke-width:0.1102;stroke-linecap:butt;stroke-linejoin:miter;stroke-miterlimit:4;stroke-dasharray:none;stroke-opacity:1"
       d="m 9.006286,4.2185153 0.073411,0.5585199 0.2887237,0.018728 0.2426125,0.03675 0.1916737,0.1030802 0.2206701,-0.1433537 0.149155,0.2325836 0.169763,0.03318 0.151407,0.00804 0.0427,-0.019596 0.179384,-0.00573 0.0148,-0.00793 0.0393,0.00162 0.120011,-0.071509 0.163475,0.059523 0.11972,-0.1944752"
       id="path4158" />
  </g>
</svg>
