<?xml version="1.0" encoding="UTF-8" standalone="no"?>
<!-- Created with Inkscape (http://www.inkscape.org/) -->

<svg
   width="30"
   height="30"
   viewBox="0 0 7.9374996 7.9375005"
   version="1.1"
   id="svg5"
   inkscape:version="1.1.2 (b8e25be833, 2022-02-05)"
   sodipodi:docname="ico_2.svg"
   xmlns:inkscape="http://www.inkscape.org/namespaces/inkscape"
   xmlns:sodipodi="http://sodipodi.sourceforge.net/DTD/sodipodi-0.dtd"
   xmlns="http://www.w3.org/2000/svg"
   xmlns:svg="http://www.w3.org/2000/svg">
  <sodipodi:namedview
     id="namedview7"
     pagecolor="#ffffff"
     bordercolor="#666666"
     borderopacity="1.0"
     inkscape:pageshadow="2"
     inkscape:pageopacity="0.0"
     inkscape:pagecheckerboard="0"
     inkscape:document-units="mm"
     showgrid="false"
     width="15mm"
     fit-margin-top="0"
     fit-margin-left="0"
     fit-margin-right="0"
     fit-margin-bottom="0"
     inkscape:zoom="8.375525"
     inkscape:cx="43.101776"
     inkscape:cy="23.043332"
     inkscape:window-width="1920"
     inkscape:window-height="1017"
     inkscape:window-x="-8"
     inkscape:window-y="-8"
     inkscape:window-maximized="1"
     inkscape:current-layer="layer1"
     units="px" />
  <defs
     id="defs2" />
  <g
     inkscape:label="Слой 1"
     inkscape:groupmode="layer"
     id="layer1"
     transform="translate(-0.48610104,-3.8590685)">
    <path
       style="fill:none;stroke:#000000;stroke-width:0.158613px;stroke-linecap:butt;stroke-linejoin:miter;stroke-opacity:1"
       d="M 1.1080337,6.5564208 8.1191542,6.551897 Z"
       id="path1249" />
    <path
       style="fill:#ffffff;stroke:#000000;stroke-width:0.1"
       id="path881"
       sodipodi:type="arc"
       sodipodi:cx="2.7293019"
       sodipodi:cy="9.6271954"
       sodipodi:rx="0.35649061"
       sodipodi:ry="0.36135814"
       sodipodi:start="0"
       sodipodi:end="3.1349397"
       sodipodi:arc-type="arc"
       d="M 3.0857925,9.6271954 A 0.35649061,0.36135814 0 0 1 2.7304878,9.9885515 0.35649061,0.36135814 0 0 1 2.3728192,9.6295994"
       sodipodi:open="true"
       transform="matrix(0.99996237,0.0086755,-0.00844333,0.99996435,0,0)" />
    <path
       style="fill:none;stroke:#000000;stroke-width:0.1"
       id="circle963"
       sodipodi:type="arc"
       sodipodi:cx="2.0427275"
       sodipodi:cy="9.4264412"
       sodipodi:rx="0.35649061"
       sodipodi:ry="0.36135814"
       sodipodi:start="0.56457789"
       sodipodi:end="3.4935023"
       sodipodi:arc-type="arc"
       d="M 2.3438959,9.6197892 A 0.35649061,0.36135814 0 0 1 1.8850254,9.7505183 0.35649061,0.36135814 0 0 1 1.708084,9.3018843"
       sodipodi:open="true"
       transform="matrix(0.99996237,0.0086755,-0.00844333,0.99996435,0,0)" />
    <path
       style="fill:none;stroke:#000000;stroke-width:0.1"
       id="circle983"
       sodipodi:type="arc"
       sodipodi:cx="3.455487"
       sodipodi:cy="9.6138124"
       sodipodi:rx="0.35649061"
       sodipodi:ry="0.36135814"
       sodipodi:start="0"
       sodipodi:end="3.1101725"
       sodipodi:open="true"
       sodipodi:arc-type="arc"
       d="M 3.8119776,9.6138124 A 0.35649061,0.36135814 0 0 1 3.4610873,9.975126 0.35649061,0.36135814 0 0 1 3.0991724,9.6251645"
       transform="matrix(0.99996237,0.0086755,-0.00844333,0.99996435,0,0)" />
    <path
       style="fill:none;stroke:#000000;stroke-width:0.1"
       id="circle985"
       sodipodi:type="arc"
       sodipodi:cx="4.1552649"
       sodipodi:cy="9.6941137"
       sodipodi:rx="0.35649061"
       sodipodi:ry="0.36135814"
       sodipodi:start="0"
       sodipodi:end="3.15554"
       sodipodi:open="true"
       sodipodi:arc-type="arc"
       d="M 4.5117555,9.6941137 A 0.35649061,0.36135814 0 0 1 4.3320729,10.007896 0.35649061,0.36135814 0 0 1 3.9741567,10.005366 0.35649061,0.36135814 0 0 1 3.7988089,9.6890739"
       transform="matrix(0.99996237,0.0086755,-0.00844333,0.99996435,0,0)" />
    <path
       style="fill:none;stroke:#000000;stroke-width:0.1"
       id="circle987"
       sodipodi:type="arc"
       sodipodi:cx="4.8946528"
       sodipodi:cy="9.6271954"
       sodipodi:rx="0.35649061"
       sodipodi:ry="0.36135814"
       sodipodi:start="0"
       sodipodi:end="3.1291694"
       sodipodi:open="true"
       sodipodi:arc-type="arc"
       d="M 5.2511435,9.6271954 A 0.35649061,0.36135814 0 0 1 4.8968672,9.9885465 0.35649061,0.36135814 0 0 1 4.5381897,9.6316845"
       transform="matrix(0.99996237,0.0086755,-0.00844333,0.99996435,0,0)" />
    <path
       style="fill:none;stroke:#000000;stroke-width:0.1"
       id="circle989"
       sodipodi:type="arc"
       sodipodi:cx="5.6076341"
       sodipodi:cy="9.5736609"
       sodipodi:rx="0.35649061"
       sodipodi:ry="0.36135814"
       sodipodi:start="6.1451983"
       sodipodi:end="3.1051393"
       sodipodi:arc-type="arc"
       d="M 5.9607362,9.5239562 A 0.35649061,0.36135814 0 0 1 5.8170075,9.8661283 0.35649061,0.36135814 0 0 1 5.4515142,9.8985241 0.35649061,0.36135814 0 0 1 5.2513803,9.5868306"
       sodipodi:open="true"
       transform="matrix(0.99996237,0.0086755,-0.00844333,0.99996435,0,0)" />
    <path
       style="fill:none;stroke:#000000;stroke-width:0.1"
       id="circle991"
       sodipodi:type="arc"
       sodipodi:cx="6.3602252"
       sodipodi:cy="9.4799767"
       sodipodi:rx="0.35649061"
       sodipodi:ry="0.36135814"
       sodipodi:start="0"
       sodipodi:end="3.0683508"
       sodipodi:open="true"
       sodipodi:arc-type="arc"
       d="M 6.7167158,9.4799767 A 0.35649061,0.36135814 0 0 1 6.3732773,9.8410925 0.35649061,0.36135814 0 0 1 6.0046903,9.5064195"
       transform="matrix(0.99996237,0.0086755,-0.00844333,0.99996435,0,0)" />
    <path
       style="fill:none;stroke:#000000;stroke-width:0.1"
       id="circle1110"
       sodipodi:type="arc"
       sodipodi:cx="1.4089664"
       sodipodi:cy="9.0383158"
       sodipodi:rx="0.35649061"
       sodipodi:ry="0.36135814"
       sodipodi:start="0.74347444"
       sodipodi:end="4.208765"
       sodipodi:arc-type="arc"
       d="M 1.6713868,9.2829009 A 0.35649061,0.36135814 0 0 1 1.2941988,9.3804356 0.35649061,0.36135814 0 0 1 1.0538529,9.0700471 0.35649061,0.36135814 0 0 1 1.2369231,8.7218241"
       sodipodi:open="true"
       transform="matrix(0.99996237,0.0086755,-0.00844333,0.99996435,0,0)" />
    <path
       style="fill:none;stroke:#000000;stroke-width:0.1"
       id="circle1112"
       sodipodi:type="arc"
       sodipodi:cx="0.99966246"
       sodipodi:cy="8.3958998"
       sodipodi:rx="0.35649061"
       sodipodi:ry="0.36135814"
       sodipodi:start="0"
       sodipodi:end="4.6033464"
       sodipodi:open="true"
       sodipodi:arc-type="arc"
       d="M 1.3561531,8.3958998 A 0.35649061,0.36135814 0 0 1 1.0126172,8.7570192 0.35649061,0.36135814 0 0 1 0.64411338,8.4221456 0.35649061,0.36135814 0 0 1 0.96086679,8.0366878"
       transform="matrix(0.99996237,0.0086755,-0.00844333,0.99996435,0,0)" />
    <path
       style="fill:none;stroke:#000000;stroke-width:0.1"
       id="circle1114"
       sodipodi:type="arc"
       sodipodi:cx="0.94684905"
       sodipodi:cy="7.6464162"
       sodipodi:rx="0.35649061"
       sodipodi:ry="0.36135814"
       sodipodi:start="1.6119055"
       sodipodi:end="4.7301012"
       sodipodi:arc-type="arc"
       d="M 0.93219814,8.007469 A 0.35649061,0.36135814 0 0 1 0.59051261,7.6357899 0.35649061,0.36135814 0 0 1 0.95316296,7.2851147"
       sodipodi:open="true"
       transform="matrix(0.99996237,0.0086755,-0.00844333,0.99996435,0,0)" />
    <path
       style="fill:#ffffff;stroke:#000000;stroke-width:0.1"
       id="circle1116"
       sodipodi:type="arc"
       sodipodi:cx="0.96005237"
       sodipodi:cy="6.8433981"
       sodipodi:rx="0.35649061"
       sodipodi:ry="0.36135814"
       sodipodi:start="1.6186412"
       sodipodi:end="5.3192406"
       sodipodi:arc-type="arc"
       d="M 0.94300263,7.2043427 A 0.35649061,0.36135814 0 0 1 0.61838819,6.9465278 0.35649061,0.36135814 0 0 1 0.75098485,6.5507059 0.35649061,0.36135814 0 0 1 1.1633533,6.5465613"
       sodipodi:open="true"
       transform="matrix(0.99996237,0.0086755,-0.00844333,0.99996435,0,0)" />
    <path
       style="fill:none;stroke:#000000;stroke-width:0.0957919"
       id="circle1204"
       transform="matrix(-0.99996237,-0.0086755,-0.00844334,0.99996435,0,0)"
       sodipodi:type="arc"
       sodipodi:cx="-7.0632553"
       sodipodi:cy="9.3720913"
       sodipodi:rx="0.34148899"
       sodipodi:ry="0.34615171"
       sodipodi:start="0.22748656"
       sodipodi:end="3.4480963"
       sodipodi:arc-type="arc"
       d="M -6.7305643,9.4501587 A 0.34148899,0.34615171 0 0 1 -6.9722441,9.7057232 0.34148899,0.34615171 0 0 1 -7.3091182,9.6123213 0.34148899,0.34615171 0 0 1 -7.388829,9.2676479"
       sodipodi:open="true" />
    <path
       style="fill:none;stroke:#000000;stroke-width:0.0957919"
       id="circle1208"
       transform="matrix(-0.99996237,-0.0086755,-0.00844334,0.99996435,0,0)"
       sodipodi:type="arc"
       sodipodi:cx="-7.6703467"
       sodipodi:cy="9.0002995"
       sodipodi:rx="0.34148899"
       sodipodi:ry="0.34615171"
       sodipodi:start="0.57753426"
       sodipodi:end="3.9353011"
       sodipodi:arc-type="arc"
       d="m -7.3842434,9.1892844 a 0.34148899,0.34615171 0 0 1 -0.329015,0.1544229 0.34148899,0.34615171 0 0 1 -0.2806409,-0.2326991 0.34148899,0.34615171 0 0 1 0.084098,-0.3575006"
       sodipodi:open="true" />
    <path
       style="fill:none;stroke:#000000;stroke-width:0.0957919"
       id="circle1210"
       transform="matrix(-0.99996237,-0.0086755,-0.00844334,0.99996435,0,0)"
       sodipodi:type="arc"
       sodipodi:cx="-8.0624275"
       sodipodi:cy="8.3849173"
       sodipodi:rx="0.34148899"
       sodipodi:ry="0.34615171"
       sodipodi:start="1.1909756"
       sodipodi:end="4.5358285"
       sodipodi:arc-type="arc"
       d="M -7.9358191,8.7063991 A 0.34148899,0.34615171 0 0 1 -8.2914586,8.641673 0.34148899,0.34615171 0 0 1 -8.3906848,8.2894942 0.34148899,0.34615171 0 0 1 -8.1224082,8.0441469"
       sodipodi:open="true" />
    <path
       style="fill:none;stroke:#000000;stroke-width:0.0957919"
       id="circle1212"
       transform="matrix(-0.99996237,-0.0086755,-0.00844334,0.99996435,0,0)"
       sodipodi:type="arc"
       sodipodi:cx="-8.113019"
       sodipodi:cy="7.6669736"
       sodipodi:rx="0.34148899"
       sodipodi:ry="0.34615171"
       sodipodi:start="1.3939303"
       sodipodi:end="4.6900017"
       sodipodi:arc-type="arc"
       d="M -8.0529356,8.0077253 A 0.34148899,0.34615171 0 0 1 -8.3850852,7.8761765 0.34148899,0.34615171 0 0 1 -8.4205535,7.5164972 0.34148899,0.34615171 0 0 1 -8.1206634,7.3209086"
       sodipodi:open="true" />
    <path
       style="fill:#ffffff;stroke:#000000;stroke-width:0.0957919"
       id="circle1214"
       transform="matrix(-0.99996237,-0.0086755,-0.00844334,0.99996435,0,0)"
       sodipodi:type="arc"
       sodipodi:cx="-8.1003704"
       sodipodi:cy="6.897748"
       sodipodi:rx="0.34148899"
       sodipodi:ry="0.32840738"
       sodipodi:start="1.1713966"
       sodipodi:end="4.7441656"
       sodipodi:arc-type="arc"
       d="M -7.9675772,7.2003079 A 0.34148899,0.32840738 0 0 1 -8.3433141,7.1285404 0.34148899,0.32840738 0 0 1 -8.413332,6.766345 0.34148899,0.32840738 0 0 1 -8.0895209,6.5695064"
       sodipodi:open="true" />
  </g>
</svg>
